<mxfile host="app.diagrams.net" modified="2023-10-18T11:17:33.070Z" agent="Mozilla/5.0 (Windows NT 10.0; Win64; x64) AppleWebKit/537.36 (KHTML, like Gecko) Chrome/118.0.0.0 Safari/537.36" etag="blIc-OYV5Ls18Gys7l3K" version="22.0.4" type="device">
  <diagram name="1 oldal" id="oMOHTNiDXLZ4Tq5TGuen">
    <mxGraphModel dx="3217" dy="2486" grid="1" gridSize="10" guides="1" tooltips="1" connect="1" arrows="1" fold="1" page="1" pageScale="1" pageWidth="827" pageHeight="1169" math="0" shadow="0">
      <root>
        <mxCell id="0" />
        <mxCell id="1" parent="0" />
        <mxCell id="49Yj8wFPE6s808hMDjLJ-2" value="Fesztival" style="ellipse;whiteSpace=wrap;html=1;" vertex="1" parent="1">
          <mxGeometry x="410" y="300" width="140" height="60" as="geometry" />
        </mxCell>
        <mxCell id="49Yj8wFPE6s808hMDjLJ-4" value="" style="endArrow=none;html=1;rounded=0;exitX=0.5;exitY=0;exitDx=0;exitDy=0;entryX=0.5;entryY=1;entryDx=0;entryDy=0;" edge="1" parent="1" source="49Yj8wFPE6s808hMDjLJ-15" target="49Yj8wFPE6s808hMDjLJ-2">
          <mxGeometry width="50" height="50" relative="1" as="geometry">
            <mxPoint x="270" y="400" as="sourcePoint" />
            <mxPoint x="510" y="560" as="targetPoint" />
          </mxGeometry>
        </mxCell>
        <mxCell id="49Yj8wFPE6s808hMDjLJ-6" value="" style="endArrow=none;html=1;rounded=0;exitX=0.5;exitY=0;exitDx=0;exitDy=0;entryX=0.5;entryY=1;entryDx=0;entryDy=0;" edge="1" parent="1" source="49Yj8wFPE6s808hMDjLJ-16" target="49Yj8wFPE6s808hMDjLJ-2">
          <mxGeometry width="50" height="50" relative="1" as="geometry">
            <mxPoint x="400" y="400" as="sourcePoint" />
            <mxPoint x="510" y="560" as="targetPoint" />
          </mxGeometry>
        </mxCell>
        <mxCell id="49Yj8wFPE6s808hMDjLJ-9" value="" style="endArrow=none;html=1;rounded=0;exitX=0.5;exitY=0;exitDx=0;exitDy=0;entryX=0.5;entryY=1;entryDx=0;entryDy=0;" edge="1" parent="1" source="49Yj8wFPE6s808hMDjLJ-17" target="49Yj8wFPE6s808hMDjLJ-2">
          <mxGeometry width="50" height="50" relative="1" as="geometry">
            <mxPoint x="530" y="400" as="sourcePoint" />
            <mxPoint x="510" y="560" as="targetPoint" />
          </mxGeometry>
        </mxCell>
        <mxCell id="49Yj8wFPE6s808hMDjLJ-11" value="" style="endArrow=none;html=1;rounded=0;exitX=0.5;exitY=0;exitDx=0;exitDy=0;entryX=0.5;entryY=1;entryDx=0;entryDy=0;" edge="1" parent="1" source="49Yj8wFPE6s808hMDjLJ-18" target="49Yj8wFPE6s808hMDjLJ-2">
          <mxGeometry width="50" height="50" relative="1" as="geometry">
            <mxPoint x="660" y="400" as="sourcePoint" />
            <mxPoint x="510" y="560" as="targetPoint" />
          </mxGeometry>
        </mxCell>
        <mxCell id="49Yj8wFPE6s808hMDjLJ-15" value="&lt;u&gt;FESZ_ID&lt;/u&gt;" style="rhombus;whiteSpace=wrap;html=1;" vertex="1" parent="1">
          <mxGeometry x="230" y="400" width="80" height="80" as="geometry" />
        </mxCell>
        <mxCell id="49Yj8wFPE6s808hMDjLJ-16" value="név" style="ellipse;whiteSpace=wrap;html=1;" vertex="1" parent="1">
          <mxGeometry x="320" y="410" width="140" height="60" as="geometry" />
        </mxCell>
        <mxCell id="49Yj8wFPE6s808hMDjLJ-17" value="helyszín" style="ellipse;whiteSpace=wrap;html=1;" vertex="1" parent="1">
          <mxGeometry x="490" y="410" width="140" height="60" as="geometry" />
        </mxCell>
        <mxCell id="49Yj8wFPE6s808hMDjLJ-18" value="év" style="ellipse;whiteSpace=wrap;html=1;" vertex="1" parent="1">
          <mxGeometry x="640" y="410" width="140" height="60" as="geometry" />
        </mxCell>
        <mxCell id="49Yj8wFPE6s808hMDjLJ-19" value="Fellépő" style="ellipse;whiteSpace=wrap;html=1;" vertex="1" parent="1">
          <mxGeometry x="-240" y="300" width="140" height="60" as="geometry" />
        </mxCell>
        <mxCell id="49Yj8wFPE6s808hMDjLJ-20" value="" style="endArrow=none;html=1;rounded=0;exitX=0.5;exitY=0;exitDx=0;exitDy=0;entryX=0.5;entryY=1;entryDx=0;entryDy=0;" edge="1" parent="1" source="49Yj8wFPE6s808hMDjLJ-24" target="49Yj8wFPE6s808hMDjLJ-19">
          <mxGeometry width="50" height="50" relative="1" as="geometry">
            <mxPoint x="-380" y="400" as="sourcePoint" />
            <mxPoint x="-140" y="560" as="targetPoint" />
          </mxGeometry>
        </mxCell>
        <mxCell id="49Yj8wFPE6s808hMDjLJ-21" value="" style="endArrow=none;html=1;rounded=0;exitX=0.5;exitY=0;exitDx=0;exitDy=0;entryX=0.5;entryY=1;entryDx=0;entryDy=0;" edge="1" parent="1" source="49Yj8wFPE6s808hMDjLJ-25" target="49Yj8wFPE6s808hMDjLJ-19">
          <mxGeometry width="50" height="50" relative="1" as="geometry">
            <mxPoint x="-250" y="400" as="sourcePoint" />
            <mxPoint x="-140" y="560" as="targetPoint" />
          </mxGeometry>
        </mxCell>
        <mxCell id="49Yj8wFPE6s808hMDjLJ-22" value="" style="endArrow=none;html=1;rounded=0;exitX=0.5;exitY=0;exitDx=0;exitDy=0;entryX=0.5;entryY=1;entryDx=0;entryDy=0;" edge="1" parent="1" source="49Yj8wFPE6s808hMDjLJ-26" target="49Yj8wFPE6s808hMDjLJ-19">
          <mxGeometry width="50" height="50" relative="1" as="geometry">
            <mxPoint x="-120" y="400" as="sourcePoint" />
            <mxPoint x="-140" y="560" as="targetPoint" />
          </mxGeometry>
        </mxCell>
        <mxCell id="49Yj8wFPE6s808hMDjLJ-23" value="" style="endArrow=none;html=1;rounded=0;exitX=0.5;exitY=0;exitDx=0;exitDy=0;entryX=0.5;entryY=1;entryDx=0;entryDy=0;" edge="1" parent="1" source="49Yj8wFPE6s808hMDjLJ-27" target="49Yj8wFPE6s808hMDjLJ-19">
          <mxGeometry width="50" height="50" relative="1" as="geometry">
            <mxPoint x="10" y="400" as="sourcePoint" />
            <mxPoint x="-140" y="560" as="targetPoint" />
          </mxGeometry>
        </mxCell>
        <mxCell id="49Yj8wFPE6s808hMDjLJ-24" value="&lt;u&gt;FEL_ID&lt;/u&gt;" style="rhombus;whiteSpace=wrap;html=1;" vertex="1" parent="1">
          <mxGeometry x="-420" y="400" width="80" height="80" as="geometry" />
        </mxCell>
        <mxCell id="49Yj8wFPE6s808hMDjLJ-25" value="név" style="ellipse;whiteSpace=wrap;html=1;" vertex="1" parent="1">
          <mxGeometry x="-330" y="410" width="140" height="60" as="geometry" />
        </mxCell>
        <mxCell id="49Yj8wFPE6s808hMDjLJ-26" value="ország" style="ellipse;whiteSpace=wrap;html=1;" vertex="1" parent="1">
          <mxGeometry x="-180" y="410" width="140" height="60" as="geometry" />
        </mxCell>
        <mxCell id="49Yj8wFPE6s808hMDjLJ-27" value="díj" style="ellipse;whiteSpace=wrap;html=1;" vertex="1" parent="1">
          <mxGeometry x="-20" y="410" width="140" height="60" as="geometry" />
        </mxCell>
        <mxCell id="49Yj8wFPE6s808hMDjLJ-44" style="edgeStyle=orthogonalEdgeStyle;rounded=0;orthogonalLoop=1;jettySize=auto;html=1;exitX=0.5;exitY=0;exitDx=0;exitDy=0;entryX=0.5;entryY=1;entryDx=0;entryDy=0;endArrow=none;endFill=0;" edge="1" parent="1" source="49Yj8wFPE6s808hMDjLJ-30" target="49Yj8wFPE6s808hMDjLJ-33">
          <mxGeometry relative="1" as="geometry" />
        </mxCell>
        <mxCell id="49Yj8wFPE6s808hMDjLJ-30" value="Tulajdonos" style="ellipse;whiteSpace=wrap;html=1;" vertex="1" parent="1">
          <mxGeometry x="410" y="-40" width="140" height="60" as="geometry" />
        </mxCell>
        <mxCell id="49Yj8wFPE6s808hMDjLJ-31" value="T_ID" style="rhombus;whiteSpace=wrap;html=1;" vertex="1" parent="1">
          <mxGeometry x="170" y="-150" width="80" height="80" as="geometry" />
        </mxCell>
        <mxCell id="49Yj8wFPE6s808hMDjLJ-32" value="név" style="ellipse;whiteSpace=wrap;html=1;" vertex="1" parent="1">
          <mxGeometry x="260" y="-140" width="140" height="60" as="geometry" />
        </mxCell>
        <mxCell id="49Yj8wFPE6s808hMDjLJ-43" style="edgeStyle=orthogonalEdgeStyle;rounded=0;orthogonalLoop=1;jettySize=auto;html=1;exitX=0.5;exitY=1;exitDx=0;exitDy=0;entryX=0.5;entryY=0;entryDx=0;entryDy=0;strokeColor=none;" edge="1" parent="1" source="49Yj8wFPE6s808hMDjLJ-33" target="49Yj8wFPE6s808hMDjLJ-30">
          <mxGeometry relative="1" as="geometry" />
        </mxCell>
        <mxCell id="49Yj8wFPE6s808hMDjLJ-33" value="adószám" style="ellipse;whiteSpace=wrap;html=1;" vertex="1" parent="1">
          <mxGeometry x="410" y="-140" width="140" height="60" as="geometry" />
        </mxCell>
        <mxCell id="49Yj8wFPE6s808hMDjLJ-34" value="alapítás" style="ellipse;whiteSpace=wrap;html=1;" vertex="1" parent="1">
          <mxGeometry x="560" y="-140" width="140" height="60" as="geometry" />
        </mxCell>
        <mxCell id="49Yj8wFPE6s808hMDjLJ-35" value="bevétel" style="ellipse;whiteSpace=wrap;html=1;" vertex="1" parent="1">
          <mxGeometry x="710" y="-140" width="140" height="60" as="geometry" />
        </mxCell>
        <mxCell id="49Yj8wFPE6s808hMDjLJ-36" value="" style="endArrow=none;html=1;rounded=0;exitX=0.5;exitY=0;exitDx=0;exitDy=0;entryX=0.5;entryY=1;entryDx=0;entryDy=0;" edge="1" parent="1" source="49Yj8wFPE6s808hMDjLJ-30" target="49Yj8wFPE6s808hMDjLJ-31">
          <mxGeometry width="50" height="50" relative="1" as="geometry">
            <mxPoint x="460" y="350" as="sourcePoint" />
            <mxPoint x="510" y="300" as="targetPoint" />
          </mxGeometry>
        </mxCell>
        <mxCell id="49Yj8wFPE6s808hMDjLJ-46" value="" style="endArrow=none;html=1;rounded=0;exitX=0.5;exitY=1;exitDx=0;exitDy=0;" edge="1" parent="1" source="49Yj8wFPE6s808hMDjLJ-32">
          <mxGeometry width="50" height="50" relative="1" as="geometry">
            <mxPoint x="460" y="350" as="sourcePoint" />
            <mxPoint x="480" y="-40" as="targetPoint" />
          </mxGeometry>
        </mxCell>
        <mxCell id="49Yj8wFPE6s808hMDjLJ-47" value="" style="endArrow=none;html=1;rounded=0;exitX=0.5;exitY=1;exitDx=0;exitDy=0;" edge="1" parent="1" source="49Yj8wFPE6s808hMDjLJ-34">
          <mxGeometry width="50" height="50" relative="1" as="geometry">
            <mxPoint x="460" y="350" as="sourcePoint" />
            <mxPoint x="480" y="-40" as="targetPoint" />
          </mxGeometry>
        </mxCell>
        <mxCell id="49Yj8wFPE6s808hMDjLJ-48" value="" style="endArrow=none;html=1;rounded=0;exitX=0.5;exitY=1;exitDx=0;exitDy=0;entryX=0.5;entryY=0;entryDx=0;entryDy=0;" edge="1" parent="1" source="49Yj8wFPE6s808hMDjLJ-35" target="49Yj8wFPE6s808hMDjLJ-30">
          <mxGeometry width="50" height="50" relative="1" as="geometry">
            <mxPoint x="460" y="350" as="sourcePoint" />
            <mxPoint x="510" y="300" as="targetPoint" />
          </mxGeometry>
        </mxCell>
        <mxCell id="49Yj8wFPE6s808hMDjLJ-49" value="Bár" style="ellipse;whiteSpace=wrap;html=1;" vertex="1" parent="1">
          <mxGeometry x="410" y="740" width="140" height="60" as="geometry" />
        </mxCell>
        <mxCell id="49Yj8wFPE6s808hMDjLJ-50" value="" style="endArrow=none;html=1;rounded=0;exitX=0.5;exitY=0;exitDx=0;exitDy=0;entryX=0.5;entryY=1;entryDx=0;entryDy=0;" edge="1" parent="1" source="49Yj8wFPE6s808hMDjLJ-54" target="49Yj8wFPE6s808hMDjLJ-49">
          <mxGeometry width="50" height="50" relative="1" as="geometry">
            <mxPoint x="270" y="840" as="sourcePoint" />
            <mxPoint x="510" y="1000" as="targetPoint" />
          </mxGeometry>
        </mxCell>
        <mxCell id="49Yj8wFPE6s808hMDjLJ-51" value="" style="endArrow=none;html=1;rounded=0;exitX=0.5;exitY=0;exitDx=0;exitDy=0;entryX=0.5;entryY=1;entryDx=0;entryDy=0;" edge="1" parent="1" source="49Yj8wFPE6s808hMDjLJ-55" target="49Yj8wFPE6s808hMDjLJ-49">
          <mxGeometry width="50" height="50" relative="1" as="geometry">
            <mxPoint x="400" y="840" as="sourcePoint" />
            <mxPoint x="510" y="1000" as="targetPoint" />
          </mxGeometry>
        </mxCell>
        <mxCell id="49Yj8wFPE6s808hMDjLJ-52" value="" style="endArrow=none;html=1;rounded=0;exitX=0.5;exitY=0;exitDx=0;exitDy=0;entryX=0.5;entryY=1;entryDx=0;entryDy=0;" edge="1" parent="1" source="49Yj8wFPE6s808hMDjLJ-58" target="49Yj8wFPE6s808hMDjLJ-49">
          <mxGeometry width="50" height="50" relative="1" as="geometry">
            <mxPoint x="540" y="850" as="sourcePoint" />
            <mxPoint x="510" y="1000" as="targetPoint" />
          </mxGeometry>
        </mxCell>
        <mxCell id="49Yj8wFPE6s808hMDjLJ-53" value="" style="endArrow=none;html=1;rounded=0;exitX=0.5;exitY=0;exitDx=0;exitDy=0;entryX=0.5;entryY=1;entryDx=0;entryDy=0;" edge="1" parent="1" source="49Yj8wFPE6s808hMDjLJ-57" target="49Yj8wFPE6s808hMDjLJ-49">
          <mxGeometry width="50" height="50" relative="1" as="geometry">
            <mxPoint x="660" y="840" as="sourcePoint" />
            <mxPoint x="510" y="1000" as="targetPoint" />
          </mxGeometry>
        </mxCell>
        <mxCell id="49Yj8wFPE6s808hMDjLJ-54" value="&lt;u&gt;B_ID&lt;/u&gt;" style="rhombus;whiteSpace=wrap;html=1;" vertex="1" parent="1">
          <mxGeometry x="230" y="840" width="80" height="80" as="geometry" />
        </mxCell>
        <mxCell id="49Yj8wFPE6s808hMDjLJ-55" value="név" style="ellipse;whiteSpace=wrap;html=1;" vertex="1" parent="1">
          <mxGeometry x="320" y="850" width="140" height="60" as="geometry" />
        </mxCell>
        <mxCell id="49Yj8wFPE6s808hMDjLJ-57" value="cég" style="ellipse;whiteSpace=wrap;html=1;" vertex="1" parent="1">
          <mxGeometry x="630" y="850" width="140" height="60" as="geometry" />
        </mxCell>
        <mxCell id="49Yj8wFPE6s808hMDjLJ-58" value="ital" style="ellipse;shape=doubleEllipse;margin=3;whiteSpace=wrap;html=1;align=center;" vertex="1" parent="1">
          <mxGeometry x="480" y="850" width="140" height="60" as="geometry" />
        </mxCell>
        <mxCell id="49Yj8wFPE6s808hMDjLJ-59" value="Alkalmazott" style="ellipse;whiteSpace=wrap;html=1;" vertex="1" parent="1">
          <mxGeometry x="-233" y="740" width="140" height="60" as="geometry" />
        </mxCell>
        <mxCell id="49Yj8wFPE6s808hMDjLJ-60" value="" style="endArrow=none;html=1;rounded=0;exitX=0.5;exitY=0;exitDx=0;exitDy=0;entryX=0.5;entryY=1;entryDx=0;entryDy=0;" edge="1" parent="1" source="49Yj8wFPE6s808hMDjLJ-64" target="49Yj8wFPE6s808hMDjLJ-59">
          <mxGeometry width="50" height="50" relative="1" as="geometry">
            <mxPoint x="-373" y="840" as="sourcePoint" />
            <mxPoint x="-133" y="1000" as="targetPoint" />
          </mxGeometry>
        </mxCell>
        <mxCell id="49Yj8wFPE6s808hMDjLJ-61" value="" style="endArrow=none;html=1;rounded=0;exitX=0.5;exitY=0;exitDx=0;exitDy=0;entryX=0.5;entryY=1;entryDx=0;entryDy=0;" edge="1" parent="1" source="49Yj8wFPE6s808hMDjLJ-65" target="49Yj8wFPE6s808hMDjLJ-59">
          <mxGeometry width="50" height="50" relative="1" as="geometry">
            <mxPoint x="-243" y="840" as="sourcePoint" />
            <mxPoint x="-133" y="1000" as="targetPoint" />
          </mxGeometry>
        </mxCell>
        <mxCell id="49Yj8wFPE6s808hMDjLJ-62" value="" style="endArrow=none;html=1;rounded=0;exitX=0.5;exitY=0;exitDx=0;exitDy=0;entryX=0.5;entryY=1;entryDx=0;entryDy=0;" edge="1" parent="1" source="49Yj8wFPE6s808hMDjLJ-67" target="49Yj8wFPE6s808hMDjLJ-59">
          <mxGeometry width="50" height="50" relative="1" as="geometry">
            <mxPoint x="-103" y="850" as="sourcePoint" />
            <mxPoint x="-133" y="1000" as="targetPoint" />
          </mxGeometry>
        </mxCell>
        <mxCell id="49Yj8wFPE6s808hMDjLJ-63" value="" style="endArrow=none;html=1;rounded=0;exitX=0.5;exitY=0;exitDx=0;exitDy=0;entryX=0.5;entryY=1;entryDx=0;entryDy=0;" edge="1" parent="1" source="49Yj8wFPE6s808hMDjLJ-66" target="49Yj8wFPE6s808hMDjLJ-59">
          <mxGeometry width="50" height="50" relative="1" as="geometry">
            <mxPoint x="17" y="840" as="sourcePoint" />
            <mxPoint x="-133" y="1000" as="targetPoint" />
          </mxGeometry>
        </mxCell>
        <mxCell id="49Yj8wFPE6s808hMDjLJ-64" value="&lt;u&gt;A_ID&lt;/u&gt;" style="rhombus;whiteSpace=wrap;html=1;" vertex="1" parent="1">
          <mxGeometry x="-413" y="840" width="80" height="80" as="geometry" />
        </mxCell>
        <mxCell id="49Yj8wFPE6s808hMDjLJ-65" value="név" style="ellipse;whiteSpace=wrap;html=1;" vertex="1" parent="1">
          <mxGeometry x="-323" y="850" width="140" height="60" as="geometry" />
        </mxCell>
        <mxCell id="49Yj8wFPE6s808hMDjLJ-66" value="fizetés" style="ellipse;whiteSpace=wrap;html=1;" vertex="1" parent="1">
          <mxGeometry x="-13" y="850" width="140" height="60" as="geometry" />
        </mxCell>
        <mxCell id="49Yj8wFPE6s808hMDjLJ-67" value="műszak" style="ellipse;shape=doubleEllipse;margin=3;whiteSpace=wrap;html=1;align=center;" vertex="1" parent="1">
          <mxGeometry x="-163" y="850" width="140" height="60" as="geometry" />
        </mxCell>
        <mxCell id="49Yj8wFPE6s808hMDjLJ-68" value="Részvevő" style="ellipse;whiteSpace=wrap;html=1;" vertex="1" parent="1">
          <mxGeometry x="1120" y="310" width="140" height="60" as="geometry" />
        </mxCell>
        <mxCell id="49Yj8wFPE6s808hMDjLJ-69" value="" style="endArrow=none;html=1;rounded=0;exitX=0.5;exitY=0;exitDx=0;exitDy=0;entryX=0.5;entryY=1;entryDx=0;entryDy=0;" edge="1" parent="1" source="49Yj8wFPE6s808hMDjLJ-73" target="49Yj8wFPE6s808hMDjLJ-68">
          <mxGeometry width="50" height="50" relative="1" as="geometry">
            <mxPoint x="980" y="410" as="sourcePoint" />
            <mxPoint x="1220" y="570" as="targetPoint" />
          </mxGeometry>
        </mxCell>
        <mxCell id="49Yj8wFPE6s808hMDjLJ-70" value="" style="endArrow=none;html=1;rounded=0;exitX=0.5;exitY=0;exitDx=0;exitDy=0;entryX=0.5;entryY=1;entryDx=0;entryDy=0;" edge="1" parent="1" source="49Yj8wFPE6s808hMDjLJ-74" target="49Yj8wFPE6s808hMDjLJ-68">
          <mxGeometry width="50" height="50" relative="1" as="geometry">
            <mxPoint x="1110" y="410" as="sourcePoint" />
            <mxPoint x="1220" y="570" as="targetPoint" />
          </mxGeometry>
        </mxCell>
        <mxCell id="49Yj8wFPE6s808hMDjLJ-71" value="" style="endArrow=none;html=1;rounded=0;exitX=0.5;exitY=0;exitDx=0;exitDy=0;entryX=0.5;entryY=1;entryDx=0;entryDy=0;" edge="1" parent="1" source="49Yj8wFPE6s808hMDjLJ-75" target="49Yj8wFPE6s808hMDjLJ-68">
          <mxGeometry width="50" height="50" relative="1" as="geometry">
            <mxPoint x="1240" y="410" as="sourcePoint" />
            <mxPoint x="1220" y="570" as="targetPoint" />
          </mxGeometry>
        </mxCell>
        <mxCell id="49Yj8wFPE6s808hMDjLJ-72" value="" style="endArrow=none;html=1;rounded=0;exitX=0;exitY=0.5;exitDx=0;exitDy=0;entryX=1;entryY=0.5;entryDx=0;entryDy=0;" edge="1" parent="1" target="49Yj8wFPE6s808hMDjLJ-68">
          <mxGeometry width="50" height="50" relative="1" as="geometry">
            <mxPoint x="1514" y="340" as="sourcePoint" />
            <mxPoint x="1220" y="570" as="targetPoint" />
          </mxGeometry>
        </mxCell>
        <mxCell id="49Yj8wFPE6s808hMDjLJ-73" value="&lt;u&gt;R_ID&lt;/u&gt;" style="rhombus;whiteSpace=wrap;html=1;" vertex="1" parent="1">
          <mxGeometry x="940" y="410" width="80" height="80" as="geometry" />
        </mxCell>
        <mxCell id="49Yj8wFPE6s808hMDjLJ-74" value="név" style="ellipse;whiteSpace=wrap;html=1;" vertex="1" parent="1">
          <mxGeometry x="1030" y="420" width="140" height="60" as="geometry" />
        </mxCell>
        <mxCell id="49Yj8wFPE6s808hMDjLJ-75" value="diákigazolvány(0)" style="ellipse;whiteSpace=wrap;html=1;" vertex="1" parent="1">
          <mxGeometry x="1220" y="420" width="140" height="60" as="geometry" />
        </mxCell>
        <mxCell id="49Yj8wFPE6s808hMDjLJ-77" value="település" style="ellipse;whiteSpace=wrap;html=1;" vertex="1" parent="1">
          <mxGeometry x="1670" y="420" width="140" height="60" as="geometry" />
        </mxCell>
        <mxCell id="49Yj8wFPE6s808hMDjLJ-78" value="utca" style="ellipse;whiteSpace=wrap;html=1;" vertex="1" parent="1">
          <mxGeometry x="1514" y="420" width="140" height="60" as="geometry" />
        </mxCell>
        <mxCell id="49Yj8wFPE6s808hMDjLJ-79" value="házszám" style="ellipse;whiteSpace=wrap;html=1;" vertex="1" parent="1">
          <mxGeometry x="1370" y="420" width="140" height="60" as="geometry" />
        </mxCell>
        <mxCell id="49Yj8wFPE6s808hMDjLJ-80" value="" style="endArrow=none;html=1;rounded=0;exitX=0.5;exitY=0;exitDx=0;exitDy=0;" edge="1" parent="1" source="49Yj8wFPE6s808hMDjLJ-77">
          <mxGeometry width="50" height="50" relative="1" as="geometry">
            <mxPoint x="980" y="490" as="sourcePoint" />
            <mxPoint x="1580" y="370" as="targetPoint" />
          </mxGeometry>
        </mxCell>
        <mxCell id="49Yj8wFPE6s808hMDjLJ-81" value="" style="endArrow=none;html=1;rounded=0;entryX=0.5;entryY=0;entryDx=0;entryDy=0;exitX=0.5;exitY=1;exitDx=0;exitDy=0;" edge="1" parent="1" target="49Yj8wFPE6s808hMDjLJ-78">
          <mxGeometry width="50" height="50" relative="1" as="geometry">
            <mxPoint x="1584" y="370" as="sourcePoint" />
            <mxPoint x="1030" y="440" as="targetPoint" />
          </mxGeometry>
        </mxCell>
        <mxCell id="49Yj8wFPE6s808hMDjLJ-82" value="" style="endArrow=none;html=1;rounded=0;exitX=0.5;exitY=1;exitDx=0;exitDy=0;entryX=0.5;entryY=0;entryDx=0;entryDy=0;" edge="1" parent="1" target="49Yj8wFPE6s808hMDjLJ-79">
          <mxGeometry width="50" height="50" relative="1" as="geometry">
            <mxPoint x="1584" y="370" as="sourcePoint" />
            <mxPoint x="1030" y="440" as="targetPoint" />
          </mxGeometry>
        </mxCell>
        <mxCell id="49Yj8wFPE6s808hMDjLJ-83" value="" style="rounded=0;whiteSpace=wrap;html=1;" vertex="1" parent="1">
          <mxGeometry x="1430" y="480" width="20" height="30" as="geometry" />
        </mxCell>
        <mxCell id="49Yj8wFPE6s808hMDjLJ-84" value="" style="rounded=0;whiteSpace=wrap;html=1;" vertex="1" parent="1">
          <mxGeometry x="1574" y="480" width="20" height="30" as="geometry" />
        </mxCell>
        <mxCell id="49Yj8wFPE6s808hMDjLJ-85" value="" style="rounded=0;whiteSpace=wrap;html=1;" vertex="1" parent="1">
          <mxGeometry x="1730" y="480" width="20" height="30" as="geometry" />
        </mxCell>
        <mxCell id="49Yj8wFPE6s808hMDjLJ-87" value="" style="endArrow=none;html=1;rounded=0;exitX=0.5;exitY=1;exitDx=0;exitDy=0;entryX=0.5;entryY=0;entryDx=0;entryDy=0;" edge="1" parent="1" source="49Yj8wFPE6s808hMDjLJ-78" target="49Yj8wFPE6s808hMDjLJ-84">
          <mxGeometry width="50" height="50" relative="1" as="geometry">
            <mxPoint x="1450" y="470" as="sourcePoint" />
            <mxPoint x="1450" y="490" as="targetPoint" />
          </mxGeometry>
        </mxCell>
        <mxCell id="49Yj8wFPE6s808hMDjLJ-88" value="" style="endArrow=none;html=1;rounded=0;exitX=0.5;exitY=1;exitDx=0;exitDy=0;entryX=0.5;entryY=0;entryDx=0;entryDy=0;" edge="1" parent="1" source="49Yj8wFPE6s808hMDjLJ-77" target="49Yj8wFPE6s808hMDjLJ-85">
          <mxGeometry width="50" height="50" relative="1" as="geometry">
            <mxPoint x="1460" y="480" as="sourcePoint" />
            <mxPoint x="1460" y="500" as="targetPoint" />
          </mxGeometry>
        </mxCell>
        <mxCell id="49Yj8wFPE6s808hMDjLJ-93" value="" style="endArrow=none;html=1;rounded=0;exitX=0.5;exitY=0;exitDx=0;exitDy=0;entryX=0.5;entryY=1;entryDx=0;entryDy=0;" edge="1" parent="1" source="49Yj8wFPE6s808hMDjLJ-83" target="49Yj8wFPE6s808hMDjLJ-79">
          <mxGeometry width="50" height="50" relative="1" as="geometry">
            <mxPoint x="980" y="350" as="sourcePoint" />
            <mxPoint x="1030" y="300" as="targetPoint" />
          </mxGeometry>
        </mxCell>
        <mxCell id="49Yj8wFPE6s808hMDjLJ-96" style="edgeStyle=orthogonalEdgeStyle;rounded=0;orthogonalLoop=1;jettySize=auto;html=1;exitX=0.5;exitY=1;exitDx=0;exitDy=0;" edge="1" parent="1" source="49Yj8wFPE6s808hMDjLJ-95">
          <mxGeometry relative="1" as="geometry">
            <mxPoint x="480" y="360" as="targetPoint" />
            <Array as="points">
              <mxPoint x="167" y="510" />
              <mxPoint x="480" y="510" />
            </Array>
          </mxGeometry>
        </mxCell>
        <mxCell id="49Yj8wFPE6s808hMDjLJ-95" value="FESZ_ID" style="rhombus;whiteSpace=wrap;html=1;" vertex="1" parent="1">
          <mxGeometry x="127" y="400" width="80" height="80" as="geometry" />
        </mxCell>
        <mxCell id="49Yj8wFPE6s808hMDjLJ-97" value="" style="endArrow=none;html=1;rounded=0;exitX=0.5;exitY=0;exitDx=0;exitDy=0;entryX=0.5;entryY=1;entryDx=0;entryDy=0;" edge="1" parent="1" source="49Yj8wFPE6s808hMDjLJ-95" target="49Yj8wFPE6s808hMDjLJ-19">
          <mxGeometry width="50" height="50" relative="1" as="geometry">
            <mxPoint x="10" y="780" as="sourcePoint" />
            <mxPoint x="60" y="730" as="targetPoint" />
          </mxGeometry>
        </mxCell>
        <mxCell id="49Yj8wFPE6s808hMDjLJ-99" style="edgeStyle=orthogonalEdgeStyle;rounded=0;orthogonalLoop=1;jettySize=auto;html=1;exitX=0.5;exitY=1;exitDx=0;exitDy=0;" edge="1" parent="1" source="49Yj8wFPE6s808hMDjLJ-98" target="49Yj8wFPE6s808hMDjLJ-2">
          <mxGeometry relative="1" as="geometry" />
        </mxCell>
        <mxCell id="49Yj8wFPE6s808hMDjLJ-98" value="&lt;u&gt;FESZ_ID&lt;/u&gt;" style="rhombus;whiteSpace=wrap;html=1;" vertex="1" parent="1">
          <mxGeometry x="850" y="410" width="80" height="80" as="geometry" />
        </mxCell>
        <mxCell id="49Yj8wFPE6s808hMDjLJ-100" value="" style="endArrow=none;html=1;rounded=0;exitX=0.5;exitY=0;exitDx=0;exitDy=0;entryX=0.5;entryY=1;entryDx=0;entryDy=0;" edge="1" parent="1" source="49Yj8wFPE6s808hMDjLJ-98" target="49Yj8wFPE6s808hMDjLJ-68">
          <mxGeometry width="50" height="50" relative="1" as="geometry">
            <mxPoint x="1090" y="350" as="sourcePoint" />
            <mxPoint x="1140" y="300" as="targetPoint" />
          </mxGeometry>
        </mxCell>
        <mxCell id="49Yj8wFPE6s808hMDjLJ-104" value="ital" style="ellipse;shape=doubleEllipse;margin=3;whiteSpace=wrap;html=1;align=center;" vertex="1" parent="1">
          <mxGeometry x="1514" y="310" width="140" height="60" as="geometry" />
        </mxCell>
        <mxCell id="49Yj8wFPE6s808hMDjLJ-107" style="edgeStyle=orthogonalEdgeStyle;rounded=0;orthogonalLoop=1;jettySize=auto;html=1;exitX=0.5;exitY=0;exitDx=0;exitDy=0;entryX=0.5;entryY=1;entryDx=0;entryDy=0;" edge="1" parent="1" source="49Yj8wFPE6s808hMDjLJ-106" target="49Yj8wFPE6s808hMDjLJ-2">
          <mxGeometry relative="1" as="geometry" />
        </mxCell>
        <mxCell id="49Yj8wFPE6s808hMDjLJ-106" value="FESZ_ID" style="rhombus;whiteSpace=wrap;html=1;" vertex="1" parent="1">
          <mxGeometry x="780" y="840" width="80" height="80" as="geometry" />
        </mxCell>
        <mxCell id="49Yj8wFPE6s808hMDjLJ-108" value="" style="endArrow=none;html=1;rounded=0;exitX=0.5;exitY=0;exitDx=0;exitDy=0;entryX=0.5;entryY=1;entryDx=0;entryDy=0;" edge="1" parent="1" source="49Yj8wFPE6s808hMDjLJ-106" target="49Yj8wFPE6s808hMDjLJ-49">
          <mxGeometry width="50" height="50" relative="1" as="geometry">
            <mxPoint x="310" y="660" as="sourcePoint" />
            <mxPoint x="360" y="610" as="targetPoint" />
          </mxGeometry>
        </mxCell>
        <mxCell id="49Yj8wFPE6s808hMDjLJ-111" style="edgeStyle=orthogonalEdgeStyle;rounded=0;orthogonalLoop=1;jettySize=auto;html=1;exitX=0.5;exitY=1;exitDx=0;exitDy=0;entryX=0.5;entryY=0;entryDx=0;entryDy=0;" edge="1" parent="1" source="49Yj8wFPE6s808hMDjLJ-109" target="49Yj8wFPE6s808hMDjLJ-2">
          <mxGeometry relative="1" as="geometry" />
        </mxCell>
        <mxCell id="49Yj8wFPE6s808hMDjLJ-109" value="&lt;u&gt;FESZ_ID&lt;/u&gt;" style="rhombus;whiteSpace=wrap;html=1;" vertex="1" parent="1">
          <mxGeometry x="880" y="-150" width="80" height="80" as="geometry" />
        </mxCell>
        <mxCell id="49Yj8wFPE6s808hMDjLJ-110" value="" style="endArrow=none;html=1;rounded=0;entryX=0.5;entryY=0;entryDx=0;entryDy=0;" edge="1" parent="1" target="49Yj8wFPE6s808hMDjLJ-30">
          <mxGeometry width="50" height="50" relative="1" as="geometry">
            <mxPoint x="920" y="-70" as="sourcePoint" />
            <mxPoint x="360" y="40" as="targetPoint" />
          </mxGeometry>
        </mxCell>
        <mxCell id="49Yj8wFPE6s808hMDjLJ-120" style="edgeStyle=orthogonalEdgeStyle;rounded=0;orthogonalLoop=1;jettySize=auto;html=1;exitX=0.5;exitY=1;exitDx=0;exitDy=0;entryX=0.5;entryY=1;entryDx=0;entryDy=0;" edge="1" parent="1" source="49Yj8wFPE6s808hMDjLJ-116" target="49Yj8wFPE6s808hMDjLJ-64">
          <mxGeometry relative="1" as="geometry" />
        </mxCell>
        <mxCell id="49Yj8wFPE6s808hMDjLJ-116" value="A_ID" style="rhombus;whiteSpace=wrap;html=1;" vertex="1" parent="1">
          <mxGeometry x="140" y="840" width="80" height="80" as="geometry" />
        </mxCell>
        <mxCell id="49Yj8wFPE6s808hMDjLJ-121" value="" style="endArrow=none;html=1;rounded=0;exitX=0.5;exitY=0;exitDx=0;exitDy=0;entryX=0.5;entryY=1;entryDx=0;entryDy=0;" edge="1" parent="1" source="49Yj8wFPE6s808hMDjLJ-116" target="49Yj8wFPE6s808hMDjLJ-49">
          <mxGeometry width="50" height="50" relative="1" as="geometry">
            <mxPoint x="310" y="660" as="sourcePoint" />
            <mxPoint x="360" y="610" as="targetPoint" />
          </mxGeometry>
        </mxCell>
        <mxCell id="49Yj8wFPE6s808hMDjLJ-122" value="Nyelvtudás" style="ellipse;whiteSpace=wrap;html=1;" vertex="1" parent="1">
          <mxGeometry x="1120" y="730" width="140" height="60" as="geometry" />
        </mxCell>
        <mxCell id="49Yj8wFPE6s808hMDjLJ-124" value="Nyelvtudás" style="ellipse;whiteSpace=wrap;html=1;" vertex="1" parent="1">
          <mxGeometry x="1120" y="850" width="140" height="60" as="geometry" />
        </mxCell>
        <mxCell id="49Yj8wFPE6s808hMDjLJ-125" value="Nyelvtudás" style="ellipse;whiteSpace=wrap;html=1;" vertex="1" parent="1">
          <mxGeometry x="1290" y="850" width="140" height="60" as="geometry" />
        </mxCell>
        <mxCell id="49Yj8wFPE6s808hMDjLJ-126" value="&lt;u&gt;NY_ID&lt;/u&gt;" style="rhombus;whiteSpace=wrap;html=1;" vertex="1" parent="1">
          <mxGeometry x="1030" y="840" width="80" height="80" as="geometry" />
        </mxCell>
        <mxCell id="49Yj8wFPE6s808hMDjLJ-128" value="" style="endArrow=none;html=1;rounded=0;exitX=0.5;exitY=0;exitDx=0;exitDy=0;entryX=0.5;entryY=1;entryDx=0;entryDy=0;" edge="1" parent="1" source="49Yj8wFPE6s808hMDjLJ-126" target="49Yj8wFPE6s808hMDjLJ-122">
          <mxGeometry width="50" height="50" relative="1" as="geometry">
            <mxPoint x="1100" y="800" as="sourcePoint" />
            <mxPoint x="1150" y="750" as="targetPoint" />
          </mxGeometry>
        </mxCell>
        <mxCell id="49Yj8wFPE6s808hMDjLJ-129" value="" style="endArrow=none;html=1;rounded=0;exitX=0.5;exitY=0;exitDx=0;exitDy=0;entryX=0.5;entryY=1;entryDx=0;entryDy=0;" edge="1" parent="1" source="49Yj8wFPE6s808hMDjLJ-124" target="49Yj8wFPE6s808hMDjLJ-122">
          <mxGeometry width="50" height="50" relative="1" as="geometry">
            <mxPoint x="1100" y="800" as="sourcePoint" />
            <mxPoint x="1150" y="750" as="targetPoint" />
          </mxGeometry>
        </mxCell>
        <mxCell id="49Yj8wFPE6s808hMDjLJ-130" value="" style="endArrow=none;html=1;rounded=0;entryX=0.5;entryY=0;entryDx=0;entryDy=0;" edge="1" parent="1" target="49Yj8wFPE6s808hMDjLJ-125">
          <mxGeometry width="50" height="50" relative="1" as="geometry">
            <mxPoint x="1190" y="790" as="sourcePoint" />
            <mxPoint x="1150" y="750" as="targetPoint" />
          </mxGeometry>
        </mxCell>
        <mxCell id="49Yj8wFPE6s808hMDjLJ-131" value="közlemény" style="ellipse;whiteSpace=wrap;html=1;" vertex="1" parent="1">
          <mxGeometry x="1120" y="570" width="140" height="60" as="geometry" />
        </mxCell>
        <mxCell id="49Yj8wFPE6s808hMDjLJ-132" value="" style="endArrow=none;html=1;rounded=0;entryX=0.5;entryY=0;entryDx=0;entryDy=0;" edge="1" parent="1" target="49Yj8wFPE6s808hMDjLJ-131">
          <mxGeometry width="50" height="50" relative="1" as="geometry">
            <mxPoint x="1190" y="370" as="sourcePoint" />
            <mxPoint x="1160" y="750" as="targetPoint" />
          </mxGeometry>
        </mxCell>
        <mxCell id="49Yj8wFPE6s808hMDjLJ-133" value="" style="endArrow=none;html=1;rounded=0;entryX=0.5;entryY=1;entryDx=0;entryDy=0;exitX=0.5;exitY=0;exitDx=0;exitDy=0;" edge="1" parent="1" source="49Yj8wFPE6s808hMDjLJ-122" target="49Yj8wFPE6s808hMDjLJ-131">
          <mxGeometry width="50" height="50" relative="1" as="geometry">
            <mxPoint x="1200" y="380" as="sourcePoint" />
            <mxPoint x="1200" y="580" as="targetPoint" />
          </mxGeometry>
        </mxCell>
        <mxCell id="49Yj8wFPE6s808hMDjLJ-134" value="&lt;u&gt;K_ID&lt;/u&gt;" style="rhombus;whiteSpace=wrap;html=1;" vertex="1" parent="1">
          <mxGeometry x="1260" y="610" width="80" height="80" as="geometry" />
        </mxCell>
        <mxCell id="49Yj8wFPE6s808hMDjLJ-135" value="közlemény" style="ellipse;whiteSpace=wrap;html=1;" vertex="1" parent="1">
          <mxGeometry x="1360" y="620" width="140" height="60" as="geometry" />
        </mxCell>
        <mxCell id="49Yj8wFPE6s808hMDjLJ-137" value="" style="endArrow=none;html=1;rounded=0;exitX=0.5;exitY=0;exitDx=0;exitDy=0;entryX=1;entryY=0.5;entryDx=0;entryDy=0;" edge="1" parent="1" source="49Yj8wFPE6s808hMDjLJ-134" target="49Yj8wFPE6s808hMDjLJ-131">
          <mxGeometry width="50" height="50" relative="1" as="geometry">
            <mxPoint x="500" y="330" as="sourcePoint" />
            <mxPoint x="550" y="280" as="targetPoint" />
          </mxGeometry>
        </mxCell>
        <mxCell id="49Yj8wFPE6s808hMDjLJ-138" value="" style="endArrow=none;html=1;rounded=0;exitX=0.5;exitY=0;exitDx=0;exitDy=0;entryX=1;entryY=0.5;entryDx=0;entryDy=0;" edge="1" parent="1" source="49Yj8wFPE6s808hMDjLJ-135" target="49Yj8wFPE6s808hMDjLJ-131">
          <mxGeometry width="50" height="50" relative="1" as="geometry">
            <mxPoint x="500" y="330" as="sourcePoint" />
            <mxPoint x="550" y="280" as="targetPoint" />
          </mxGeometry>
        </mxCell>
      </root>
    </mxGraphModel>
  </diagram>
</mxfile>
